<?xml version="1.0" encoding="utf-8"?>
<!-- Generator: Adobe Illustrator 26.0.1, SVG Export Plug-In . SVG Version: 6.00 Build 0)  -->
<svg version="1.1" id="Layer_1" xmlns="http://www.w3.org/2000/svg" xmlns:xlink="http://www.w3.org/1999/xlink" x="0px" y="0px"
	 viewBox="0 0 595.28 841.89" style="enable-background:new 0 0 595.28 841.89;" xml:space="preserve">
<style type="text/css">
	.st0{fill:#D5BF76;}
</style>
<path class="st0" d="M253.72,448.76v-1.04c0,0,6.81,2.63,8-13.39V379.1l2.72-1.12l47.74,53.81l8.34,9.01l-1.62-54.2l0.09-0.56
	l5.79-0.08l-0.34,64.09h-3.57l-53.28-59.07h-2.21l0.6,47.11c0,0,2.04,10.44,9.53,10.36l-0.34,0.64L253.72,448.76z"/>
<path class="st0" d="M269.12,417.6l23.83,24.31c0,0,14.72,21.12,29.19,13.39c0,0-9.45,3.75-23.83-18.97c0,0-15.74-19.37-25.02-20.25
	l38.21-30.93c0,0,5.11-4.94,12.68-5.26l-0.34-0.64H300.1v0.8c0,0,7.4,0.72,4.85,5.26c0,0-5.45,6.22-10.72,10.6l-25.62,21.6"/>
</svg>
