<svg id="Layer_1" data-name="Layer 1" xmlns="http://www.w3.org/2000/svg" viewBox="0 0 71.06 79.02"><defs><style>.cls-1{fill:#d5bf76;}</style></defs><path class="cls-1" d="M253.72,448.76v-1s6.81,2.63,8-13.39V379.1l2.72-1.12,47.74,53.81,8.34,9-1.62-54.2L319,386l5.79-.08-.34,64.09h-3.57L267.59,391h-2.21l.6,47.11s2,10.44,9.53,10.36l-.34.64Z" transform="translate(-253.72 -377.98)"/><path class="cls-1" d="M269.12,417.6,293,441.91S307.67,463,322.14,455.3c0,0-9.45,3.75-23.83-19,0,0-15.74-19.37-25-20.25l38.21-30.93a21.13,21.13,0,0,1,12.68-5.26l-.34-.64H300.1v.8s7.4.72,4.85,5.26a113.56,113.56,0,0,1-10.72,10.6l-25.62,21.6" transform="translate(-253.72 -377.98)"/></svg>